<svg width="30" height="30" viewBox="0 0 30 30" fill="none" xmlns="http://www.w3.org/2000/svg">
<path d="M12.4999 29.9998C5.60746 29.9998 0 24.3923 0 17.4999C0 10.6075 5.60746 5 12.4999 5C19.3923 5 24.9998 10.6075 24.9998 17.4999C24.9998 24.3923 19.3923 29.9998 12.4999 29.9998Z" fill="#FAFAFA"/>
<path fill-rule="evenodd" clip-rule="evenodd" d="M0 17.4999C0 24.3923 5.60746 29.9998 12.4999 29.9998C19.3923 29.9998 24.9998 24.3923 24.9998 17.4999C24.9998 10.6075 19.3923 5 12.4999 5C5.60746 5 0 10.6075 0 17.4999ZM1.87499 17.4999C1.87499 11.6412 6.6412 6.87497 12.4999 6.87497C18.3586 6.87497 23.1248 11.6412 23.1248 17.4999C23.1248 23.3586 18.3586 28.1248 12.4999 28.1248C6.6412 28.1248 1.87499 23.3586 1.87499 17.4999Z" fill="#F44336"/>
<path fill-rule="evenodd" clip-rule="evenodd" d="M4.375 17.5004C4.375 21.9804 8.01997 25.6254 12.4999 25.6254C16.9799 25.6254 20.6249 21.9804 20.6249 17.5004C20.6249 13.0205 16.9799 9.37549 12.4999 9.37549C8.01997 9.37549 4.375 13.0205 4.375 17.5004ZM6.24997 17.5004C6.24997 14.0542 9.0537 11.2505 12.4999 11.2505C15.9461 11.2505 18.7499 14.0542 18.7499 17.5004C18.7499 20.9467 15.9461 23.7504 12.4999 23.7504C9.0537 23.7504 6.24997 20.9467 6.24997 17.5004Z" fill="#F44336"/>
<path fill-rule="evenodd" clip-rule="evenodd" d="M8.74994 17.4998C8.74994 19.5673 10.4324 21.2498 12.4999 21.2498C14.5674 21.2498 16.2499 19.5673 16.2499 17.4998C16.2499 15.4324 14.5674 13.7499 12.4999 13.7499C10.4324 13.7499 8.74994 15.4324 8.74994 17.4998ZM10.6271 17.4998C10.6271 16.466 11.4683 15.6248 12.502 15.6248C13.5358 15.6248 14.377 16.466 14.377 17.4998C14.377 18.5335 13.5358 19.3748 12.502 19.3748C11.4683 19.3748 10.6271 18.5335 10.6271 17.4998Z" fill="#F44336"/>
<path d="M12.4999 5C5.60746 5 0 10.6075 0 17.4999C0 24.3923 5.60746 29.9998 12.4999 29.9998V28.1248C6.6412 28.1248 1.87499 23.3586 1.87499 17.4999C1.87499 11.6412 6.6412 6.87499 12.4999 6.87499V5Z" fill="#D43A2F"/>
<path d="M12.4999 9.375C8.01997 9.375 4.375 13.02 4.375 17.4999C4.375 21.9799 8.01997 25.6249 12.4999 25.6249V23.7499C9.05371 23.7499 6.24999 20.9462 6.24999 17.4999C6.24999 14.0537 9.05371 11.25 12.4999 11.25V9.375Z" fill="#D43A2F"/>
<path d="M12.5021 15.6249C11.4684 15.6249 10.6271 16.4661 10.6271 17.4999C10.6271 18.5336 11.4684 19.3748 12.5021 19.3748V15.6249Z" fill="#DADADA"/>
<path d="M12.4999 13.7499C10.4324 13.7499 8.74994 15.4324 8.74994 17.4998C8.74994 19.5673 10.4324 21.2498 12.4999 21.2498V19.3748C11.4662 19.3748 10.6249 18.5336 10.6249 17.4998C10.6249 16.4661 11.4662 15.6249 12.4999 15.6249V13.7499Z" fill="#D43A2F"/>
<path d="M12.5 11.2505C9.05373 11.2505 6.25 14.0542 6.25 17.5004C6.25 20.9467 9.05373 23.7504 12.5 23.7504V21.2504C10.4325 21.2504 8.74998 19.5679 8.74998 17.5004C8.74998 15.433 10.4325 13.7505 12.5 13.7505V11.2505Z" fill="#DADADA"/>
<path d="M12.4999 6.875C6.64121 6.875 1.875 11.6412 1.875 17.4999C1.875 23.3586 6.64121 28.1248 12.4999 28.1248V25.6248C8.01995 25.6248 4.37498 21.9799 4.37498 17.4999C4.37498 13.02 8.01995 9.37498 12.4999 9.37498V6.875Z" fill="#DADADA"/>
<path d="M12.4996 18.4373C12.2596 18.4373 12.0196 18.346 11.8371 18.1623C11.4709 17.796 11.4709 17.2023 11.8371 16.836L21.212 7.46109C21.5783 7.09484 22.172 7.09484 22.5383 7.46109C22.9045 7.82733 22.9045 8.42108 22.5383 8.78733L13.1634 18.1623C12.9796 18.346 12.7396 18.4373 12.4996 18.4373Z" fill="#607D8B"/>
<path d="M25.3123 8.74996H22.1874C21.6699 8.74996 21.2499 8.32996 21.2499 7.81247V4.68749C21.2499 4.43874 21.3486 4.2 21.5249 4.025L25.2748 0.275026C25.5436 0.00627862 25.9473 -0.0724707 26.2961 0.0712781C26.6461 0.216277 26.8748 0.558774 26.8748 0.937521V3.125H29.0623C29.4411 3.125 29.7836 3.35375 29.9286 3.70375C30.0736 4.05375 29.9936 4.45749 29.7248 4.72499L25.9748 8.47496C25.7998 8.65121 25.5611 8.74996 25.3123 8.74996Z" fill="#2196F3"/>
<path d="M21.2495 7.42676C21.237 7.43801 21.2245 7.45051 21.212 7.46301L11.8371 16.8379C11.4709 17.2042 11.4709 17.7979 11.8371 18.1642L21.5245 8.47675C21.3545 8.30675 21.2495 8.07175 21.2495 7.813V7.42676Z" fill="#546D79"/>
<path d="M25.9373 0C25.6936 0 25.4536 0.0949992 25.2736 0.274998L21.5236 4.02497C21.3486 4.19997 21.2499 4.43871 21.2499 4.68746V7.42619V7.81244C21.2499 8.07119 21.3549 8.30618 21.5249 8.47493L26.8748 3.12497V0.937492C26.8748 0.558746 26.6461 0.216248 26.2961 0.0712494C26.1798 0.0237498 26.0586 0 25.9373 0Z" fill="#1D83D4"/>
</svg>
