<svg width="35" height="35" viewBox="0 0 35 35" fill="none" xmlns="http://www.w3.org/2000/svg">
<path d="M10.8938 4.6768C10.7555 4.43723 10.4491 4.35517 10.2096 4.49342L8.91854 5.23875C8.67897 5.37706 8.59691 5.68341 8.73522 5.92298L9.95928 8.04309L10.1644 8.06961L12.1033 6.94815V6.77168L10.8938 4.6768Z" fill="#3F6D8E"/>
<path d="M9.85913 5.24985C9.76314 5.08362 9.75196 4.89199 9.81137 4.72424L8.91854 5.23973C8.67897 5.37803 8.59691 5.68439 8.73522 5.92395L9.95928 8.04406L10.1644 8.07058L11.1564 7.4968L9.85913 5.24985Z" fill="#365E7D"/>
<path d="M18.3027 2.3783H16.0642L15.946 2.49231V5.72106L16.0491 5.85299H18.25L18.4385 5.72106V2.49231L18.3027 2.3783Z" fill="#365E7D"/>
<path d="M17.1923 2.49231L17.3105 2.3783H16.0642L15.946 2.49231V5.72106L16.0491 5.85299H17.2954L17.1923 5.72106V2.49231Z" fill="#294B64"/>
<circle cx="17.187" cy="17.8129" r="12.1531" transform="rotate(-45 17.187 17.8129)" fill="#90D8F9"/>
<path d="M7.04973 17.8123C7.04973 11.4388 11.9553 6.21175 18.1966 5.69926C17.8641 5.67192 17.528 5.65735 17.1885 5.65735C10.4755 5.65735 5.03357 11.0993 5.03357 17.8123C5.03357 24.5252 10.4755 29.9672 17.1885 29.9672C17.528 29.9672 17.8641 29.9525 18.1966 29.9252C11.9553 29.4128 7.04973 24.1857 7.04973 17.8123Z" fill="#75CEF9"/>
<circle cx="17.1832" cy="17.8129" r="9.74149" transform="rotate(-45 17.1832 17.8129)" fill="#F4FBFF"/>
<path d="M10.1924 17.8134C10.1924 12.9067 13.8386 8.83625 18.5637 8.16748C18.1153 8.10403 17.6575 8.07043 17.1919 8.07043C11.8196 8.07043 7.44891 12.4411 7.44891 17.8134C7.44891 23.1857 11.8196 27.5564 17.1919 27.5564C17.6575 27.5564 18.1153 27.5228 18.5637 27.4593C13.8386 26.7905 10.1924 22.72 10.1924 17.8134Z" fill="#E4F6FF"/>
<path d="M19.7448 0H14.6374C14.3383 0 14.0958 0.242494 14.0958 0.541588V1.9509C14.0958 2.24999 14.3383 2.49249 14.6374 2.49249H19.7448C20.0439 2.49249 20.2864 2.24999 20.2864 1.9509V0.541588C20.2863 0.242494 20.0439 0 19.7448 0Z" fill="#3F6D8E"/>
<path d="M16.4072 1.9509V0.541588C16.4072 0.242494 16.6496 0 16.9487 0H14.6374C14.3383 0 14.0958 0.242494 14.0958 0.541588V1.9509C14.0958 2.24999 14.3383 2.49249 14.6374 2.49249H16.9487C16.6496 2.49249 16.4072 2.24999 16.4072 1.9509Z" fill="#365E7D"/>
<path d="M15.3912 16.9082C14.8299 16.9082 14.4136 16.9082 13.7629 16.9082C13.2634 16.9082 12.8585 17.3132 12.8585 17.8127C12.8585 18.3122 13.2634 18.7172 13.7629 18.7172H15.3912L15.4814 18.5254V17.0682L15.3912 16.9082Z" fill="#FFAA5B"/>
<path d="M24.0435 16.9082C23.4212 16.9082 19.5444 16.9082 18.9931 16.9082L18.8376 17.028V18.4249L18.9931 18.7171H24.0435C24.543 18.7171 24.9479 18.3121 24.9479 17.8126C24.9479 17.3131 24.543 16.9082 24.0435 16.9082Z" fill="#FFAA5B"/>
<path d="M13.7629 17.8127C13.4283 17.8127 13.1369 17.6305 12.9804 17.3605C12.9033 17.4936 12.8585 17.6477 12.8585 17.8127C12.8585 18.3122 13.2634 18.7172 13.7629 18.7172H15.3912L15.4814 18.5254V17.6209L15.3912 17.8127C14.8299 17.8127 14.4135 17.8127 13.7629 17.8127Z" fill="#FF9838"/>
<path d="M24.0435 17.8127H18.9931L18.8376 17.5204V18.4249L18.9931 18.7172H24.0435C24.543 18.7172 24.9479 18.3122 24.9479 17.8127C24.9479 17.6477 24.9031 17.4936 24.826 17.3605C24.6695 17.6305 24.378 17.8127 24.0435 17.8127Z" fill="#FF9838"/>
<path fill-rule="evenodd" clip-rule="evenodd" d="M6.99774 17.8127C6.99774 12.1911 11.5713 7.61755 17.1929 7.61755C22.8146 7.61755 27.3881 12.1912 27.3881 17.8128C27.3881 23.4344 22.8146 28.0079 17.1929 28.0079C11.5712 28.0079 6.99774 23.4343 6.99774 17.8127ZM22.0142 25.2629L22.2208 25.6208C23.3318 24.9025 24.2804 23.9539 24.9986 22.843L24.6408 22.6364C24.4245 22.5115 24.3503 22.235 24.4752 22.0187C24.6001 21.8023 24.8766 21.7282 25.093 21.8531L25.4522 22.0605C26.0445 20.913 26.4047 19.6271 26.4703 18.2652H26.0544C25.8046 18.2652 25.6021 18.0627 25.6021 17.813C25.6021 17.5632 25.8046 17.3608 26.0544 17.3608H26.4703C26.4047 15.9988 26.0446 14.7129 25.4522 13.5654L25.093 13.7728C24.877 13.8976 24.6003 13.8238 24.4752 13.6073C24.3503 13.391 24.4244 13.1144 24.6408 12.9895L24.9986 12.7829C24.2804 11.672 23.3318 10.7234 22.2208 10.0052L22.0142 10.363C21.8893 10.5793 21.6127 10.6534 21.3965 10.5285C21.1801 10.4037 21.106 10.1271 21.2309 9.91081L21.4383 9.5516C20.2908 8.95927 19.0049 8.59907 17.643 8.53345V8.94943C17.643 9.19919 17.4405 9.40164 17.1908 9.40164C16.941 9.40164 16.7386 9.19919 16.7386 8.94943V8.53345C15.3766 8.59907 14.0907 8.95927 12.9432 9.5516L13.1506 9.91081C13.2755 10.1271 13.2014 10.4037 12.9851 10.5285C12.7688 10.6534 12.4922 10.5793 12.3673 10.363L12.1607 10.0052C11.0497 10.7233 10.1011 11.6719 9.3829 12.7829L9.74076 12.9895C9.95709 13.1144 10.0312 13.391 9.90629 13.6073C9.78144 13.8236 9.50482 13.8977 9.28855 13.7728L8.92934 13.5654C8.33701 14.7129 7.97681 15.9988 7.9112 17.3608H8.32718C8.57693 17.3608 8.77939 17.5632 8.77939 17.813C8.77939 18.0627 8.57693 18.2652 8.32718 18.2652H7.9112C7.97681 19.6271 8.33701 20.913 8.92934 22.0605L9.28855 21.8531C9.50482 21.7282 9.78138 21.8023 9.90629 22.0187C10.0312 22.2349 9.95703 22.5115 9.74076 22.6364L9.3829 22.843C10.1011 23.954 11.0497 24.9025 12.1607 25.6208L12.3673 25.2629C12.4922 25.0466 12.7687 24.9724 12.9851 25.0974C13.2013 25.2222 13.2755 25.4988 13.1506 25.7151L12.9432 26.0743C14.0907 26.6667 15.3766 27.0269 16.7386 27.0925V26.6765C16.7386 26.4268 16.941 26.2243 17.1908 26.2243C17.4405 26.2243 17.643 26.4268 17.643 26.6765V27.0925C19.0049 27.0269 20.2908 26.6667 21.4383 26.0743L21.2309 25.7151C21.106 25.4988 21.1802 25.2222 21.3965 25.0974C21.6127 24.9724 21.8893 25.0466 22.0142 25.2629Z" fill="#365E7D"/>
<ellipse cx="17.1958" cy="17.8176" rx="2.01663" ry="2.01669" transform="rotate(-67.4859 17.1958 17.8176)" fill="#FFBA7E"/>
<path d="M16.5906 17.8135C16.5906 16.9511 17.1351 16.2136 17.8983 15.9262C17.6777 15.8431 17.439 15.7974 17.1897 15.7974C16.078 15.7974 15.1736 16.7018 15.1736 17.8135C15.1736 18.9253 16.0781 19.8297 17.1897 19.8297C17.439 19.8297 17.6777 19.784 17.8983 19.7009C17.135 19.4134 16.5906 18.676 16.5906 17.8135Z" fill="#FFAA5B"/>
</svg>
